<?xml version="1.0" encoding="utf-8"?>
<!-- Generator: Adobe Illustrator 23.0.0, SVG Export Plug-In . SVG Version: 6.00 Build 0)  -->
<svg version="1.1" id="Capa_1" xmlns="http://www.w3.org/2000/svg" xmlns:xlink="http://www.w3.org/1999/xlink" x="0px" y="0px"
	 viewBox="0 0 512 512" style="enable-background:new 0 0 512 512;" xml:space="preserve">
<style type="text/css">
	.st0{fill:#FFFFFF;stroke:#000000;stroke-miterlimit:10;}
</style>
<path class="st0" d="M365.7,256c0-60.7-49-109.7-109.7-109.7s-109.7,49-109.7,109.7s49,109.7,109.7,109.7c28.5,0,53.4-11,73.1-28.5
	c71,64.4,182.9,13.2,182.9-81.2C512,114.8,397.2,0,256,0S0,114.8,0,256c0,87.8,43.9,168.2,118.5,215.8c42.4,27,89.2,40.2,137.5,40.2
	c39.5,0,79-8.8,117-26.3c18.3-8.8,26.3-30,17.6-48.3c-8.1-19-30-26.3-48.3-18.3c-28.5,13.2-57.8,19.8-86.3,19.8
	c-34.4,0-68-9.5-98-28.5C104.6,376,73.1,318.9,73.1,256C73.1,155.1,155,73.1,256,73.1s182.9,82,182.9,182.9
	C438.9,304.3,365.7,304.3,365.7,256z M291.8,260.4c-2.2,18.3-17.6,32.2-35.8,32.2c-20.5,0-36.6-16.1-36.6-36.6s16.1-36.6,36.6-36.6
	c19,0,34.4,15.4,35.8,34.4V260.4z"/>
</svg>
